HIERARCHY
ROOT Hips
{
	OFFSET 0.000000 83.214638 0.000000
	CHANNELS 6 Xposition Yposition Zposition Xrotation Yrotation Zrotation
	JOINT Pelvis
	{
		OFFSET 0.000000 0.000000 0.000000
		CHANNELS 3 Xrotation Yrotation Zrotation
		JOINT LeftUpLeg
		{
			OFFSET 8.479700 -4.795502 -0.379100
			CHANNELS 3 Xrotation Yrotation Zrotation
			JOINT LeftLeg
			{
				OFFSET 0.024144 -32.555107 0.112900
				CHANNELS 3 Xrotation Yrotation Zrotation
				JOINT LeftFoot
				{
					OFFSET -0.024144 -32.638630 -3.012600
					CHANNELS 3 Xrotation Yrotation Zrotation
					JOINT LeftToeBase
					{
						OFFSET 0.970200 -13.225400 11.864200
						CHANNELS 3 Xrotation Yrotation Zrotation
						End Site
						{
							OFFSET 0.000000 12.319262 0.000000
						}
					}
					JOINT LFootTongue
					{
						OFFSET 1.142400 -1.059800 6.665200
						CHANNELS 3 Xrotation Yrotation Zrotation
						End Site
						{
							OFFSET 0.000000 12.319262 0.000000
						}
					}
				}
				JOINT LeftPantLeg
				{
					OFFSET 0.918482 -16.533964 -2.284700
					CHANNELS 3 Xrotation Yrotation Zrotation
					End Site
					{
						OFFSET 0.350399 24.744368 0.000000
					}
				}
			}
		}
		JOINT RightUpLeg
		{
			OFFSET -8.479700 -4.795502 -0.379100
			CHANNELS 3 Xrotation Yrotation Zrotation
			JOINT RightLeg
			{
				OFFSET -0.023144 -32.555092 0.112900
				CHANNELS 3 Xrotation Yrotation Zrotation
				JOINT RightFoot
				{
					OFFSET 0.023144 -32.638641 -3.012700
					CHANNELS 3 Xrotation Yrotation Zrotation
					JOINT RightToeBase
					{
						OFFSET -0.970200 -13.225400 11.864200
						CHANNELS 3 Xrotation Yrotation Zrotation
						End Site
						{
							OFFSET 0.000000 12.319244 0.000000
						}
					}
					JOINT RFootTongue
					{
						OFFSET -1.142200 -1.059800 6.665200
						CHANNELS 3 Xrotation Yrotation Zrotation
						End Site
						{
							OFFSET 0.000000 12.319243 0.000000
						}
					}
				}
				JOINT RightPantLeg
				{
					OFFSET -0.919482 -16.533978 -2.284800
					CHANNELS 3 Xrotation Yrotation Zrotation
					End Site
					{
						OFFSET -0.350400 24.744419 0.000000
					}
				}
			}
		}
	}
	JOINT Spine
	{
		OFFSET 0.000000 7.722000 1.166200
		CHANNELS 3 Xrotation Yrotation Zrotation
		JOINT Spine1
		{
			OFFSET 0.000000 12.024101 0.248800
			CHANNELS 3 Xrotation Yrotation Zrotation
			JOINT Spine2
			{
				OFFSET 0.000000 11.502998 -0.491200
				CHANNELS 3 Xrotation Yrotation Zrotation
				JOINT Neck
				{
					OFFSET 0.000000 18.430702 -3.123100
					CHANNELS 3 Xrotation Yrotation Zrotation
					JOINT Head
					{
						OFFSET 0.000000 9.051102 1.034000
						CHANNELS 3 Xrotation Yrotation Zrotation
						JOINT HairB
						{
							OFFSET 0.208400 24.786102 24.822300
							CHANNELS 3 Xrotation Yrotation Zrotation
							End Site
							{
								OFFSET 0.000000 32.263779 0.000000
							}
						}
						JOINT HairA
						{
							OFFSET -7.081100 24.428299 23.196600
							CHANNELS 3 Xrotation Yrotation Zrotation
							End Site
							{
								OFFSET 0.000000 32.263779 0.000000
							}
						}
						JOINT Hat
						{
							OFFSET 16.728800 15.048294 -15.439601
							CHANNELS 3 Xrotation Yrotation Zrotation
							End Site
							{
								OFFSET 0.000000 32.263779 0.000000
							}
						}
					}
				}
				JOINT LeftShoulder
				{
					OFFSET 6.197800 13.665199 -4.064700
					CHANNELS 3 Xrotation Yrotation Zrotation
					JOINT LeftArm
					{
						OFFSET 7.778100 -0.187103 -1.709300
						CHANNELS 3 Xrotation Yrotation Zrotation
						JOINT LeftForeArm
						{
							OFFSET 22.049376 0.000000 0.000000
							CHANNELS 3 Xrotation Yrotation Zrotation
							JOINT LeftHand
							{
								OFFSET 23.009392 0.000000 0.000000
								CHANNELS 3 Xrotation Yrotation Zrotation
								JOINT LeftHandThumb1
								{
									OFFSET 3.507191 -2.063065 3.133727
									CHANNELS 3 Xrotation Yrotation Zrotation
									JOINT LeftHandThumb2
									{
										OFFSET 3.101337 -1.790558 1.790558
										CHANNELS 3 Xrotation Yrotation Zrotation
										JOINT LeftHandThumb3
										{
											OFFSET 3.058640 -1.765907 1.765906
											CHANNELS 3 Xrotation Yrotation Zrotation
											End Site
											{
												OFFSET -0.415260 3.926476 -0.049563
											}
										}
									}
								}
								JOINT LeftHandIndex1
								{
									OFFSET 11.334419 -0.901459 3.706815
									CHANNELS 3 Xrotation Yrotation Zrotation
									JOINT LeftHandIndex2
									{
										OFFSET 3.283112 0.000000 0.000000
										CHANNELS 3 Xrotation Yrotation Zrotation
										JOINT LeftHandIndex3
										{
											OFFSET 3.323853 0.000000 0.000000
											CHANNELS 3 Xrotation Yrotation Zrotation
											End Site
											{
												OFFSET -1.135597 3.097809 0.402452
											}
										}
									}
								}
								JOINT LeftHandMiddle1
								{
									OFFSET 11.335861 0.000000 0.000000
									CHANNELS 3 Xrotation Yrotation Zrotation
									JOINT LeftHandMiddle2
									{
										OFFSET 3.410492 0.000000 0.000000
										CHANNELS 3 Xrotation Yrotation Zrotation
										JOINT LeftHandMiddle3
										{
											OFFSET 3.312172 0.000000 0.000000
											CHANNELS 3 Xrotation Yrotation Zrotation
											End Site
											{
												OFFSET -1.150200 3.080154 0.400270
											}
										}
									}
								}
								JOINT LeftHandRing1
								{
									OFFSET 11.514786 -0.013176 -3.003090
									CHANNELS 3 Xrotation Yrotation Zrotation
									JOINT LeftHandRing2
									{
										OFFSET 3.053307 0.000000 0.000000
										CHANNELS 3 Xrotation Yrotation Zrotation
										JOINT LeftHandRing3
										{
											OFFSET 3.295807 0.000000 0.000000
											CHANNELS 3 Xrotation Yrotation Zrotation
											End Site
											{
												OFFSET -1.281006 3.013344 0.375733
											}
										}
									}
								}
								JOINT LeftHandPinky1
								{
									OFFSET 10.518692 -0.960396 -5.730441
									CHANNELS 3 Xrotation Yrotation Zrotation
									JOINT LeftHandPinky2
									{
										OFFSET 2.861649 0.000000 0.000000
										CHANNELS 3 Xrotation Yrotation Zrotation
										JOINT LeftHandPinky3
										{
											OFFSET 2.863380 0.000000 0.000000
											CHANNELS 3 Xrotation Yrotation Zrotation
											End Site
											{
												OFFSET -0.843597 2.711159 0.369971
											}
										}
									}
								}
							}
							JOINT LSleeve
							{
								OFFSET 6.676277 -0.344902 -1.011730
								CHANNELS 3 Xrotation Yrotation Zrotation
								End Site
								{
									OFFSET 0.000000 14.885353 0.000000
								}
							}
						}
					}
				}
				JOINT RightShoulder
				{
					OFFSET -6.197800 13.665199 -4.064700
					CHANNELS 3 Xrotation Yrotation Zrotation
					JOINT RightArm
					{
						OFFSET -7.778100 -0.187103 -1.709300
						CHANNELS 3 Xrotation Yrotation Zrotation
						JOINT RightForeArm
						{
							OFFSET -22.049376 0.000000 0.000000
							CHANNELS 3 Xrotation Yrotation Zrotation
							JOINT RightHand
							{
								OFFSET -23.009392 0.000000 0.000000
								CHANNELS 3 Xrotation Yrotation Zrotation
								JOINT RightHandThumb1
								{
									OFFSET -3.507191 -2.063065 3.133727
									CHANNELS 3 Xrotation Yrotation Zrotation
									JOINT RightHandThumb2
									{
										OFFSET -3.101337 -1.790558 1.790558
										CHANNELS 3 Xrotation Yrotation Zrotation
										JOINT RightHandThumb3
										{
											OFFSET -3.058640 -1.765907 1.765906
											CHANNELS 3 Xrotation Yrotation Zrotation
											End Site
											{
												OFFSET 0.415260 3.926476 -0.049563
											}
										}
									}
								}
								JOINT RightHandIndex1
								{
									OFFSET -11.334419 -0.901459 3.706815
									CHANNELS 3 Xrotation Yrotation Zrotation
									JOINT RightHandIndex2
									{
										OFFSET -3.283112 0.000000 0.000000
										CHANNELS 3 Xrotation Yrotation Zrotation
										JOINT RightHandIndex3
										{
											OFFSET -3.323853 0.000000 0.000000
											CHANNELS 3 Xrotation Yrotation Zrotation
											End Site
											{
												OFFSET 1.135597 3.097809 0.402452
											}
										}
									}
								}
								JOINT RightHandMiddle1
								{
									OFFSET -11.335861 0.000000 0.000000
									CHANNELS 3 Xrotation Yrotation Zrotation
									JOINT RightHandMiddle2
									{
										OFFSET -3.410492 0.000000 0.000000
										CHANNELS 3 Xrotation Yrotation Zrotation
										JOINT RightHandMiddle3
										{
											OFFSET -3.312172 0.000000 0.000000
											CHANNELS 3 Xrotation Yrotation Zrotation
											End Site
											{
												OFFSET 1.150200 3.080154 0.400270
											}
										}
									}
								}
								JOINT RightHandRing1
								{
									OFFSET -11.514786 -0.013176 -3.003090
									CHANNELS 3 Xrotation Yrotation Zrotation
									JOINT RightHandRing2
									{
										OFFSET -3.053307 0.000000 0.000000
										CHANNELS 3 Xrotation Yrotation Zrotation
										JOINT RightHandRing3
										{
											OFFSET -3.295807 0.000000 0.000000
											CHANNELS 3 Xrotation Yrotation Zrotation
											End Site
											{
												OFFSET 1.281006 3.013344 0.375733
											}
										}
									}
								}
								JOINT RightHandPinky1
								{
									OFFSET -10.518692 -0.960396 -5.730441
									CHANNELS 3 Xrotation Yrotation Zrotation
									JOINT RightHandPinky2
									{
										OFFSET -2.861649 0.000000 0.000000
										CHANNELS 3 Xrotation Yrotation Zrotation
										JOINT RightHandPinky3
										{
											OFFSET -2.863380 0.000000 0.000000
											CHANNELS 3 Xrotation Yrotation Zrotation
											End Site
											{
												OFFSET 0.843597 2.711159 0.369971
											}
										}
									}
								}
							}
							JOINT RSleeve
							{
								OFFSET -6.676277 -0.344902 -1.011730
								CHANNELS 3 Xrotation Yrotation Zrotation
								End Site
								{
									OFFSET 0.000000 14.885353 0.000000
								}
							}
						}
					}
				}
				JOINT Backpack
				{
					OFFSET 0.000000 -2.471497 36.677502
					CHANNELS 3 Xrotation Yrotation Zrotation
					End Site
					{
						OFFSET 0.000000 20.427315 0.000000
					}
				}
				JOINT Hood
				{
					OFFSET 0.000000 18.754097 -10.431000
					CHANNELS 3 Xrotation Yrotation Zrotation
					JOINT Hood1
					{
						OFFSET 0.000000 -5.011002 -7.685901
						CHANNELS 3 Xrotation Yrotation Zrotation
						End Site
						{
							OFFSET 0.000000 9.175140 0.000000
						}
					}
				}
				JOINT LHoodieString
				{
					OFFSET 5.250500 16.397697 3.089900
					CHANNELS 3 Xrotation Yrotation Zrotation
					JOINT LHoodieString1
					{
						OFFSET 0.257700 -6.364304 3.694600
						CHANNELS 3 Xrotation Yrotation Zrotation
						JOINT LHoodieString2
						{
							OFFSET 0.000000 -9.643799 2.679100
							CHANNELS 3 Xrotation Yrotation Zrotation
							End Site
							{
								OFFSET 0.000000 10.009018 0.000000
							}
						}
					}
				}
				JOINT RHoodieString
				{
					OFFSET -5.250500 16.397697 3.089900
					CHANNELS 3 Xrotation Yrotation Zrotation
					JOINT RHoodieString1
					{
						OFFSET -0.257700 -6.364304 3.694600
						CHANNELS 3 Xrotation Yrotation Zrotation
						JOINT RHoodieString2
						{
							OFFSET 0.000000 -9.643799 2.679100
							CHANNELS 3 Xrotation Yrotation Zrotation
							End Site
							{
								OFFSET 0.000000 10.009018 0.000000
							}
						}
					}
				}
			}
			JOINT LBackpack_Strap
			{
				OFFSET 15.223200 -7.719803 -6.610900
				CHANNELS 3 Xrotation Yrotation Zrotation
				End Site
				{
					OFFSET 0.000000 16.040596 0.000000
				}
			}
			JOINT RBackpack_Strap
			{
				OFFSET -15.223000 -7.719803 -6.610900
				CHANNELS 3 Xrotation Yrotation Zrotation
				End Site
				{
					OFFSET 0.000000 16.040596 0.000000
				}
			}
		}
	}
	JOINT BoyFacialAnim_Joint
	{
		OFFSET 1.000000 -82.208099 -1.550900
		CHANNELS 3 Xrotation Yrotation Zrotation
		End Site
		{
			OFFSET 0.000000 30.012791 0.000000
		}
	}
}
MOTION
Frames: 4
Frame Time: 0.033333
-2.099716 35.525948 -1.278515 8.376079 6.712162 17.860572 0.000000 0.000000 0.000001 -89.121838 -24.463122 21.277701 73.984671 -7.143048 -2.554986 18.358217 2.015345 -37.652377 -0.000000 0.000001 -0.000000 -0.000000 0.000001 -0.000000 0.000001 -0.000000 0.000002 -59.186431 8.854208 -48.696633 135.148817 -0.804093 -11.612471 22.595538 18.262085 -19.924053 -0.000002 -0.000000 -0.000000 -0.000002 -0.000000 -0.000000 -0.000000 0.000001 -0.000002 14.278421 -1.498044 -1.412057 28.477584 -4.266973 -3.441026 28.477599 -4.266971 -3.441025 -24.222035 -3.946300 3.305735 -37.229814 7.184098 -2.004588 0.000000 0.000001 0.000000 0.000000 0.000001 0.000000 0.000000 0.000001 0.000000 1.076376 5.580025 12.652236 -21.582443 5.232039 -61.998809 21.841663 -140.243509 14.376829 61.870244 -9.365870 -44.379390 -12.048728 12.534472 2.449778 9.854105 30.337661 4.791545 -0.000002 0.000001 0.000002 5.417513 12.188324 -24.693823 0.224693 1.696124 -18.154631 -0.000001 -0.000001 -0.000004 6.427183 3.821432 -38.123674 -0.071272 -0.389982 -12.195040 0.000002 0.000001 0.000000 0.695983 5.634198 -38.404088 -0.841661 -1.879572 -31.671977 0.000002 -0.000002 -0.000004 1.226539 8.210033 -42.097492 -1.501877 -5.243117 -30.598028 -0.000001 0.000002 0.000005 0.000001 -0.000001 -0.000002 -17.751935 15.305947 -17.683501 -52.690972 15.355264 70.819663 2.441522 33.482240 -1.347480 43.528860 -5.947142 -15.941551 11.577700 5.114546 31.850453 -0.647666 -5.164397 -4.966398 0.000001 -0.000001 -0.000004 4.984460 10.385378 -4.674301 0.021454 -0.621500 6.407613 -0.000001 0.000000 0.000004 9.110122 -2.698255 -9.041586 -0.003328 -0.160259 1.474396 0.000001 0.000001 0.000002 0.707993 -12.736273 -10.069312 -0.025944 -0.597053 8.144792 -0.000000 0.000000 -0.000001 5.001651 -26.199730 -0.132722 -0.063682 -1.078225 -0.000038 0.000001 0.000000 0.000002 0.000000 -0.000001 -0.000001 -0.000000 -0.000001 -0.000000 -0.000000 -0.000001 -0.000000 -0.000000 -0.000001 -0.000000 -0.000000 -0.000001 -0.000000 -0.000000 -0.000001 0.000000 0.000000 -0.000000 0.000000 -0.000000 -0.000001 -0.000000 -0.000000 -0.000001 0.000000 0.000000 -0.000000 0.000000 0.000001 -0.000001 -0.000001 0.000001 -0.000001 -0.000001 0.000000 0.000000 0.000001 
-2.408430 35.587128 -1.601100 9.410239 6.813450 17.267589 -0.000000 0.000000 0.000000 -89.321778 -25.326587 21.450187 72.546199 -7.319311 -2.557037 19.126162 2.377164 -38.444584 0.000000 -0.000000 -0.000000 0.000000 -0.000000 -0.000000 -0.000000 0.000000 -0.000001 -61.691915 8.162396 -47.524559 135.452418 -1.537107 -11.647474 23.139431 17.603732 -20.218900 0.000000 0.000000 -0.000000 0.000000 0.000000 -0.000000 -0.000002 -0.000002 0.000001 14.143135 -1.420332 -1.313769 28.214644 -4.170031 -3.202761 28.214639 -4.170027 -3.202763 -24.379631 -3.927409 3.184369 -36.894756 7.015280 -2.212171 -0.000000 -0.000001 -0.000000 -0.000000 -0.000001 -0.000000 -0.000000 -0.000001 -0.000000 1.107183 6.319090 12.472632 -21.625205 3.426861 -62.141396 21.519850 -138.891856 14.536646 63.472197 -9.514304 -42.551474 -11.816701 12.291265 2.575949 9.562481 29.766511 4.962406 -0.000003 0.000001 0.000002 5.300838 12.255793 -24.601187 0.223412 1.691562 -18.092471 -0.000001 -0.000001 -0.000002 6.395849 3.954864 -37.773330 -0.071263 -0.390102 -12.197916 -0.000003 0.000001 0.000002 0.722795 5.665765 -38.220120 -0.826137 -1.855155 -31.380164 0.000002 0.000001 -0.000005 1.303543 8.177817 -42.180967 -1.485056 -5.215596 -30.435733 -0.000001 0.000001 0.000002 -0.000003 -0.000001 0.000001 -17.542713 15.148226 -17.606968 -53.467605 15.905950 70.620741 2.339335 33.641018 -1.295194 43.639482 -6.306951 -15.585655 11.458593 4.662580 31.377220 -0.610462 -5.246865 -4.971876 0.000000 -0.000000 -0.000003 4.840299 10.270479 -4.612132 0.020345 -0.615128 6.271748 -0.000000 0.000001 0.000000 9.011655 -2.639826 -8.969927 -0.003174 -0.168145 1.355345 0.000000 0.000000 0.000001 0.718763 -12.600961 -9.839668 -0.024403 -0.608559 7.960538 -0.000000 0.000000 0.000000 4.974683 -26.153576 -0.019611 -0.057818 -1.034849 -0.000000 0.000001 -0.000000 -0.000003 -0.000001 -0.000001 -0.000000 -0.000000 0.000000 -0.000001 -0.000000 0.000000 -0.000001 -0.000000 0.000000 -0.000001 -0.000000 0.000000 -0.000001 -0.000000 0.000000 -0.000000 0.000001 0.000000 -0.000000 -0.000000 0.000000 -0.000001 -0.000000 0.000000 -0.000000 0.000001 0.000000 -0.000000 0.000003 0.000000 0.000000 0.000003 0.000000 0.000000 -0.000000 0.000000 0.000000 
-2.783865 35.648407 -1.945229 10.431713 6.873262 16.694012 0.000000 -0.000000 0.000001 -89.280510 -26.404936 21.566172 70.926515 -7.555945 -2.561328 20.004219 3.009049 -39.496167 -0.000000 0.000002 0.000000 -0.000000 0.000002 -0.000000 -0.000000 -0.000001 0.000001 -64.376220 7.311612 -46.476374 135.766689 -2.401643 -11.695939 23.763707 16.878557 -20.769950 0.000002 -0.000000 -0.000000 0.000002 -0.000000 -0.000000 -0.000000 -0.000001 -0.000000 14.013262 -1.341700 -1.220823 27.962591 -4.067711 -2.964122 27.962598 -4.067705 -2.964117 -24.571191 -3.906138 3.086157 -36.535242 6.914603 -2.467295 0.000000 0.000000 -0.000000 0.000000 0.000000 -0.000000 0.000000 0.000000 -0.000000 1.143980 7.121993 12.264258 -22.167323 1.405117 -62.093537 21.292626 -137.132986 14.854886 64.772084 -9.193787 -40.761787 -11.378482 12.396840 2.643698 9.715077 29.990039 4.763870 0.000000 0.000000 -0.000002 5.185181 12.262179 -24.759159 0.222570 1.686868 -18.030028 -0.000000 0.000000 -0.000002 6.308424 3.999002 -37.679845 -0.071369 -0.392094 -12.237377 -0.000002 0.000000 0.000000 0.690541 5.614187 -38.163802 -0.815597 -1.837641 -31.176289 0.000001 0.000000 -0.000004 1.363237 8.119932 -42.306615 -1.469380 -5.189327 -30.283109 -0.000000 0.000002 0.000002 0.000001 0.000003 -0.000000 -17.328899 14.979763 -17.620903 -54.483534 16.561126 70.601248 2.221665 33.491269 -1.223849 43.752351 -6.662042 -15.328345 11.331033 4.220830 30.904601 -0.545043 -5.377330 -4.977967 0.000001 0.000000 -0.000003 4.714959 10.202123 -4.657053 0.019968 -0.608584 6.132709 -0.000002 0.000002 -0.000001 8.918928 -2.554396 -8.958157 -0.003050 -0.176184 1.233531 0.000001 -0.000003 -0.000006 0.708659 -12.555633 -9.769267 -0.023094 -0.619854 7.766343 0.000000 0.000000 0.000002 4.928376 -26.168244 -0.013721 -0.051760 -0.990518 0.000004 0.000002 -0.000000 -0.000005 -0.000003 -0.000003 0.000002 -0.000001 -0.000000 0.000000 -0.000001 -0.000000 0.000000 -0.000001 -0.000000 0.000000 -0.000001 -0.000000 0.000000 -0.000001 -0.000000 0.000000 0.000000 0.000000 -0.000000 -0.000001 -0.000000 0.000000 -0.000001 -0.000000 0.000000 0.000000 0.000000 -0.000000 -0.000001 -0.000000 0.000000 -0.000001 -0.000000 0.000000 0.000000 -0.000000 0.000001 
-3.227833 35.714127 -2.309334 11.456522 6.868950 16.179528 0.000000 -0.000000 0.000000 -88.894379 -27.858083 21.550075 69.148685 -7.883563 -2.569859 20.936140 4.079195 -41.003798 0.000000 0.000000 -0.000000 0.000000 0.000000 -0.000001 -0.000000 -0.000001 0.000001 -67.185770 6.342167 -45.418166 136.095330 -3.341097 -11.755633 24.390105 16.009986 -21.391157 0.000000 0.000000 0.000000 0.000000 0.000000 0.000000 -0.000000 0.000000 0.000002 13.873180 -1.267906 -1.136089 27.690082 -3.969893 -2.727333 27.690070 -3.969896 -2.727332 -24.778186 -3.872863 2.976282 -36.109086 6.863567 -2.761789 -0.000000 -0.000000 -0.000000 -0.000000 -0.000000 -0.000000 -0.000000 -0.000000 -0.000000 1.184026 7.965488 12.010642 -22.667537 -0.826875 -62.074678 21.210681 -134.889843 15.381132 66.062703 -8.595671 -38.632718 -11.043197 12.359256 2.660829 9.738163 29.971539 4.673842 0.000000 0.000002 0.000001 5.087574 12.348602 -24.773887 0.222013 1.681883 -17.964806 -0.000004 -0.000000 -0.000002 6.234032 4.070700 -37.479447 -0.071090 -0.390088 -12.197783 0.000004 0.000000 0.000000 0.627349 5.527453 -37.977382 -0.806116 -1.821475 -30.990289 -0.000000 -0.000000 -0.000004 1.386770 8.042332 -42.318619 -1.457481 -5.168127 -30.165015 -0.000000 0.000002 0.000002 -0.000002 0.000001 0.000001 -17.120513 14.746949 -17.760175 -55.813611 17.539830 70.864920 2.085359 32.731458 -1.124238 43.725375 -6.974602 -15.309854 11.185178 3.778397 30.362185 -0.501423 -5.464249 -4.981712 0.000002 0.000000 0.000000 4.588021 10.097149 -4.717554 0.018787 -0.601919 5.990632 -0.000002 -0.000000 -0.000002 8.817874 -2.528036 -8.985180 -0.002963 -0.184344 1.109039 0.000001 0.000000 0.000001 0.706364 -12.473328 -9.645523 -0.021921 -0.632126 7.544778 -0.000001 -0.000000 0.000004 4.892148 -26.104146 0.043921 -0.049662 -0.944393 -0.000041 0.000001 0.000001 -0.000003 -0.000002 0.000000 -0.000000 -0.000000 0.000000 -0.000000 -0.000000 0.000000 -0.000000 -0.000000 0.000000 -0.000000 -0.000000 0.000000 -0.000000 -0.000000 0.000000 -0.000000 0.000001 0.000000 0.000000 -0.000000 0.000000 -0.000000 -0.000000 0.000000 -0.000000 0.000001 0.000000 0.000000 0.000001 -0.000000 -0.000000 0.000001 -0.000000 -0.000000 0.000000 -0.000000 0.000000 
